<?xml version="1.0" encoding="UTF-8" standalone="no"?>
<svg
   xmlns:dc="http://purl.org/dc/elements/1.1/"
   xmlns:cc="http://creativecommons.org/ns#"
   xmlns:rdf="http://www.w3.org/1999/02/22-rdf-syntax-ns#"
   xmlns:svg="http://www.w3.org/2000/svg"
   xmlns="http://www.w3.org/2000/svg"
   height="512pt"
   width="512pt"
   version="1.0">
  <g
     style="stroke:#d45500;fill:#d45500"
     id="g14"
     stroke="none"
     fill="#000000"
     transform="matrix(0.06001625,0,0,-0.06001625,2.4926276,630.4777)">
    <path
       style="stroke:#d45500;fill:#d45500"
       id="path12"
       d="m 9980,9391 c -86,-27 -130,-73 -130,-137 0,-39 -3,-44 -27,-50 -48,-10 -51,-12 -68,-48 -15,-32 -47,-65 -113,-118 -30,-25 -43,-26 -270,-33 l -202,-6 -15,35 c -8,20 -25,42 -38,50 -12,8 -105,31 -207,51 -102,20 -239,48 -305,63 -66,14 -148,27 -183,30 -59,3 -66,1 -115,-32 -73,-50 -127,-66 -217,-66 -91,0 -132,14 -210,73 -52,39 -60,42 -132,45 -56,3 -78,8 -78,17 0,27 -74,29 -315,10 -33,-3 -199,-7 -370,-10 -381,-6 -1036,-22 -1450,-35 -170,-6 -434,-13 -585,-15 -394,-8 -482,-14 -487,-36 -4,-14 -19,-18 -77,-21 -67,-3 -75,-6 -121,-44 -61,-51 -94,-67 -163,-84 -88,-20 -221,7 -288,59 -35,27 -126,29 -192,2 -57,-22 -105,-37 -152,-46 -97,-20 -420,-113 -437,-127 -6,-5 -14,-22 -18,-36 -3,-17 -16,-32 -33,-39 -16,-7 -132,-14 -294,-17 -237,-6 -271,-5 -299,10 -42,21 -127,101 -145,136 -11,21 -22,27 -51,30 -38,3 -38,3 -41,53 -2,29 -10,58 -20,69 -30,33 -93,56 -158,56 -49,0 -68,-5 -105,-28 -59,-38 -67,-50 -71,-102 -3,-39 -6,-45 -33,-52 -22,-6 -39,-23 -63,-63 -19,-31 -51,-67 -72,-81 -21,-14 -41,-32 -44,-40 -4,-11 -35,-14 -157,-14 -136,0 -153,2 -176,20 -14,11 -33,20 -43,20 -40,0 -88,-98 -97,-198 l -6,-68 -101,-12 c -337,-37 -524,-145 -580,-331 -9,-29 -27,-76 -41,-105 -14,-28 -29,-83 -35,-121 -5,-39 -16,-95 -25,-125 -8,-30 -15,-82 -15,-115 0,-33 -7,-82 -16,-110 -9,-30 -14,-80 -13,-125 2,-58 -2,-83 -16,-110 -14,-26 -20,-58 -21,-128 -1,-80 -4,-96 -23,-116 -30,-32 -42,-80 -40,-158 2,-64 1,-68 -31,-94 -18,-16 -39,-43 -46,-61 -20,-46 -18,-172 2,-201 14,-21 14,-24 -14,-52 -16,-16 -32,-43 -36,-61 -9,-49 -7,-148 4,-170 8,-15 6,-26 -12,-50 -30,-40 -39,-179 -15,-225 13,-26 13,-32 0,-59 -22,-42 -28,-151 -11,-200 11,-34 11,-46 0,-80 -9,-27 -11,-67 -8,-120 3,-44 5,-91 4,-105 -2,-38 -1,-198 2,-212 1,-7 -4,-42 -10,-77 -8,-46 -8,-78 0,-114 7,-36 7,-66 -1,-108 -8,-42 -8,-74 0,-119 8,-46 7,-73 -1,-105 -10,-36 -9,-57 5,-117 10,-40 18,-107 20,-148 2,-62 8,-87 35,-141 19,-40 32,-82 32,-105 0,-47 50,-158 78,-173 12,-6 22,-26 26,-52 10,-60 45,-137 73,-158 20,-17 22,-22 12,-44 -23,-52 19,-178 68,-202 21,-11 20,-11 -8,-43 -33,-37 -35,-49 -13,-121 19,-67 52,-101 96,-101 h 32 l -32,-33 c -37,-38 -39,-57 -12,-135 22,-63 49,-92 86,-92 24,0 24,-1 9,-30 -12,-24 -14,-38 -6,-68 16,-59 65,-128 96,-136 23,-6 26,-10 20,-37 -14,-63 74,-189 132,-189 22,0 24,-3 19,-25 -17,-66 92,-195 164,-195 16,0 20,-6 20,-35 0,-60 112,-165 175,-165 28,0 33,-4 38,-28 12,-58 121,-132 196,-132 35,0 43,-4 56,-31 29,-55 191,-111 229,-79 12,9 21,5 48,-22 19,-18 64,-48 101,-67 l 68,-35 397,3 c 396,2 397,2 541,32 79,16 159,29 177,29 55,0 55,-11 14,-400 -24,-238 -26,-420 -5,-481 18,-51 73,-125 161,-219 78,-82 298,-233 469,-321 492,-253 577,-288 801,-324 50,-8 120,-21 155,-29 35,-8 105,-22 154,-31 50,-9 104,-21 122,-26 17,-6 44,-12 60,-15 15,-3 35,-7 43,-9 8,-2 31,-7 50,-10 19,-3 58,-10 85,-15 41,-8 236,-27 295,-29 8,0 40,-2 70,-5 81,-7 606,-8 718,-1 54,3 134,8 180,11 202,12 569,52 947,104 116,16 242,31 280,35 39,3 93,10 120,15 28,5 73,11 100,13 28,3 77,10 110,15 33,6 103,16 155,22 238,29 374,84 570,234 97,73 105,82 195,201 71,93 155,235 155,261 0,4 23,64 51,133 44,107 53,139 57,208 8,150 -42,549 -81,633 -10,23 -19,90 -26,201 -6,91 -18,188 -26,216 -34,116 -127,217 -385,419 -47,36 -101,80 -121,98 -20,17 -45,38 -55,46 -192,149 -504,408 -505,418 0,4 -2,46 -4,93 -4,109 -22,151 -82,186 -41,24 -51,25 -121,20 l -77,-6 -35,57 c -51,82 -161,189 -267,259 -76,49 -219,121 -351,174 -42,17 -193,272 -270,459 -69,165 -161,482 -162,556 0,16 11,25 44,38 28,11 58,34 86,67 61,73 183,167 267,206 100,46 231,81 353,92 633,61 841,85 897,105 35,12 38,16 41,54 3,38 0,43 -25,53 -28,12 -236,1 -433,-22 -47,-5 -199,-21 -339,-34 -140,-14 -282,-32 -315,-41 -187,-47 -340,-136 -470,-275 -46,-49 -62,-60 -84,-57 -26,3 -27,6 -30,68 -4,101 -6,106 -62,126 -50,18 -89,57 -70,69 6,3 10,15 10,25 0,11 9,24 20,30 11,6 20,20 20,31 0,11 -9,37 -20,59 -12,23 -20,59 -20,88 0,41 8,62 54,137 29,49 62,92 72,95 11,4 237,10 504,14 537,8 599,14 737,70 251,103 445,325 512,588 14,52 24,146 32,290 l 12,213 38,43 c 84,96 93,241 22,354 -24,39 -30,82 -13,93 15,9 12,47 -5,69 -22,29 -18,68 13,127 23,45 27,65 27,134 0,69 -4,86 -27,125 l -26,45 37,-3 c 37,-4 632,142 712,175 28,11 41,24 53,52 l 15,38 217,8 c 203,7 219,6 231,-11 7,-10 13,-24 13,-32 0,-8 9,-25 20,-39 35,-45 22,-110 -32,-160 -13,-13 -152,-76 -309,-140 -157,-65 -297,-126 -311,-135 -50,-33 -62,-90 -55,-268 l 6,-159 -56,-11 c -68,-15 -118,-57 -110,-93 3,-12 31,-155 61,-317 31,-162 61,-305 67,-317 39,-74 247,-102 819,-110 745,-10 1335,43 1445,131 30,24 27,11 100,395 63,335 63,327 -22,352 -54,15 -57,16 -78,18 -13,1 -15,28 -15,178 0,171 -1,178 -25,220 -14,23 -39,50 -56,58 -16,9 -157,59 -312,111 -168,57 -291,105 -305,118 -56,50 -64,110 -22,163 11,14 20,38 20,52 0,15 7,36 15,48 27,38 63,148 70,210 16,140 -47,320 -132,373 -46,29 -93,83 -93,107 0,16 -32,33 -64,33 -24,0 -26,3 -26,49 0,44 -3,51 -37,77 -57,43 -152,63 -213,45 z M 1125,8438 c 7,-18 18,-60 24,-92 12,-68 51,-126 83,-126 12,0 31,9 42,19 19,17 38,20 161,21 188,2 175,4 175,-26 0,-14 9,-37 20,-51 33,-43 36,-87 7,-136 -28,-47 -25,-45 -182,-113 -121,-53 -319,-163 -448,-249 l -82,-55 -9,35 c -10,42 3,78 47,133 46,58 69,119 69,189 1,111 -66,204 -190,265 -61,30 -75,33 -159,33 h -92 l 26,27 c 58,60 173,105 356,138 139,25 136,25 152,-12 z m 1913,-195 c 26,-47 32,-50 192,-83 47,-10 162,-35 255,-55 94,-20 202,-42 242,-48 69,-10 72,-10 112,16 22,15 43,27 46,27 2,0 -9,-21 -25,-47 -72,-114 -67,-211 17,-345 17,-26 17,-29 -4,-70 -19,-41 -20,-46 -5,-81 14,-36 13,-41 -11,-90 -68,-136 -53,-248 49,-357 l 47,-50 9,-148 c 17,-266 47,-385 140,-539 121,-202 353,-353 606,-394 63,-10 395,-4 917,17 173,6 161,12 244,-105 55,-78 64,-117 44,-185 -29,-102 -29,-109 12,-131 21,-10 32,-21 26,-23 -16,-5 -13,-23 6,-37 18,-14 11,-17 -89,-39 -27,-6 -27,-8 -30,-94 -3,-81 -4,-87 -23,-83 -11,1 -53,38 -93,82 -121,130 -300,236 -464,274 -87,20 -941,135 -1003,135 -68,0 -95,-20 -95,-69 0,-33 4,-40 28,-50 43,-17 104,-28 317,-56 421,-55 642,-88 714,-106 160,-41 314,-137 436,-273 49,-54 81,-80 118,-96 29,-12 53,-24 55,-25 8,-7 -54,-255 -95,-378 -46,-138 -161,-388 -225,-489 l -35,-53 -134,-27 c -526,-106 -945,-346 -1103,-630 -55,-101 -69,-152 -75,-283 l -6,-120 -120,-70 c -67,-38 -145,-86 -175,-106 -30,-19 -80,-48 -110,-64 -92,-47 -411,-275 -490,-350 -74,-69 -106,-89 -114,-70 -7,20 -115,20 -162,0 -32,-13 -38,-13 -60,1 -28,19 -112,13 -159,-12 -19,-10 -32,-11 -39,-4 -15,15 -149,13 -171,-4 -14,-10 -25,-11 -38,-4 -32,17 -140,15 -168,-4 -17,-11 -30,-13 -41,-7 -9,5 -44,12 -77,15 -46,5 -66,3 -84,-9 -20,-13 -27,-13 -48,-1 -40,22 -123,36 -151,25 -20,-7 -36,-4 -79,17 -34,17 -71,27 -100,28 -30,0 -53,6 -64,18 -24,23 -110,66 -135,66 -11,0 -20,6 -20,14 0,21 -88,95 -124,104 -21,6 -32,15 -34,30 -4,25 -94,122 -114,122 -7,0 -21,23 -31,50 -19,54 -70,120 -93,120 -8,0 -14,10 -14,23 0,39 -59,147 -86,157 -16,7 -24,17 -24,34 0,43 -40,134 -69,158 -23,20 -27,30 -23,61 6,49 -23,124 -60,159 l -29,27 21,28 c 19,26 20,34 9,83 -19,93 -54,130 -123,130 -14,0 -6,10 32,36 30,22 52,44 52,55 0,36 -42,129 -67,149 -21,17 -36,20 -72,15 l -46,-5 42,22 c 23,12 45,28 48,36 10,26 -25,124 -54,153 -23,23 -29,39 -33,93 -4,40 -13,77 -24,93 -20,29 -31,118 -39,293 -2,52 -4,106 -5,120 -1,14 1,57 5,95 4,50 2,77 -7,95 -12,21 -12,30 0,54 8,15 17,56 19,90 5,51 2,65 -15,86 l -20,25 20,22 c 16,17 22,40 26,96 4,72 4,74 -27,99 -28,24 -29,27 -12,33 30,9 40,28 52,89 13,72 0,119 -39,135 -49,20 -133,31 -231,31 -66,0 -103,4 -116,13 -16,13 -14,14 25,20 24,3 76,-1 117,-9 111,-21 206,-19 227,5 19,21 33,122 22,164 -8,34 -73,55 -196,62 -98,6 -180,22 -180,35 0,14 136,19 226,8 120,-15 138,-8 153,62 28,129 13,148 -135,165 -60,8 -124,17 -143,21 -58,12 -9,22 157,30 l 151,7 11,30 c 14,43 13,152 -3,165 -7,6 -55,18 -107,26 -52,9 -121,22 -153,31 -32,8 -61,15 -65,15 -4,0 2,6 13,13 14,8 75,12 195,12 h 174 l 13,25 c 15,30 17,118 3,154 -8,22 -7,26 9,26 39,0 61,32 74,103 10,60 9,72 -6,98 -20,36 -22,36 104,43 83,5 98,4 112,-11 8,-10 60,-103 115,-208 79,-152 105,-194 131,-209 26,-15 60,-20 167,-24 l 135,-5 28,-41 c 41,-61 44,-75 21,-113 -26,-44 -25,-51 5,-104 41,-72 45,-87 45,-157 1,-388 126,-738 371,-1038 146,-179 381,-357 580,-440 42,-17 79,-42 107,-72 66,-69 70,-82 61,-195 -8,-109 0,-191 23,-214 17,-16 213,-62 271,-63 55,0 89,22 116,77 14,26 33,57 42,68 34,39 133,303 143,382 2,17 17,59 34,94 16,35 32,78 36,94 4,17 18,55 31,85 49,116 120,448 124,580 3,71 21,238 35,320 20,113 31,318 21,405 -6,62 -11,73 -44,106 -32,32 -50,39 -168,69 -164,40 -163,41 -229,-98 -25,-53 -51,-108 -57,-121 -13,-27 -83,-77 -130,-93 -17,-6 -38,-15 -45,-21 -7,-5 -88,-12 -180,-15 -138,-4 -178,-2 -225,12 -72,21 -133,73 -147,127 -10,35 -7,46 20,105 35,77 36,81 10,114 -28,36 -25,72 13,122 l 33,43 129,8 c 72,4 141,13 155,20 18,9 41,51 92,167 108,244 114,256 151,271 22,10 66,13 142,11 109,-3 110,-2 145,27 l 35,29 -2,114 c -4,171 -13,182 -147,192 -71,5 -86,10 -155,53 -233,142 -364,210 -535,279 -132,54 -176,92 -176,156 0,21 9,56 20,78 11,22 20,46 20,55 0,8 1,16 3,17 3,3 462,14 537,14 l 65,-1 z m 4918,-64 c -90,-100 -101,-244 -26,-349 25,-36 25,-54 -1,-97 -18,-29 -20,-39 -10,-59 16,-36 14,-72 -8,-103 -11,-14 -27,-50 -36,-79 -33,-99 -4,-204 77,-289 l 40,-41 1,-174 c 1,-134 -3,-189 -16,-243 -44,-174 -177,-315 -361,-382 -59,-21 -276,-32 -716,-34 l -384,-1 -21,25 c -11,13 -33,41 -48,61 -47,60 -125,106 -200,116 -99,14 -247,-2 -300,-34 -47,-27 -112,-93 -142,-144 -13,-22 -31,-36 -55,-42 -33,-8 -700,-31 -918,-30 -163,0 -279,46 -390,154 -108,104 -136,171 -156,365 -31,294 -32,266 4,298 56,49 83,107 88,188 5,83 -6,128 -50,198 -23,36 -29,54 -23,75 11,44 8,72 -9,91 -23,25 -20,66 10,127 38,78 37,166 -4,245 l -30,58 38,-24 c 28,-17 58,-26 105,-29 49,-4 71,-10 80,-23 12,-17 33,-18 252,-16 131,1 312,7 403,13 91,5 269,12 395,15 305,6 616,13 1095,25 217,5 524,12 681,15 313,5 345,9 360,36 7,13 21,19 47,19 54,0 107,17 141,45 32,27 111,75 124,75 5,0 -12,-23 -37,-51 z M 784,8100 c 51,-19 136,-94 136,-119 0,-5 3,-18 7,-28 3,-10 -17,4 -46,30 -75,70 -146,100 -251,105 -80,5 -83,6 -55,18 46,20 146,17 209,-6 z m -64,-226 c 40,-21 0,-16 -45,6 -35,17 -36,18 -10,13 17,-3 41,-12 55,-19 z M 515,7262 c -5,-5 -103,47 -111,59 -3,6 21,-4 54,-22 33,-19 59,-35 57,-37 z m 0,-232 c 28,-10 44,-19 37,-19 -21,-1 -106,21 -116,30 -16,15 25,9 79,-11 z M 166,6791 c -4,-5 -1,-12 4,-14 6,-3 5,-4 -2,-3 -15,3 -23,26 -8,26 6,0 9,-4 6,-9 z m 124,-1110 25,-7 -29,-8 c -32,-8 -86,1 -86,15 0,10 53,10 90,0 z m -75,-241 c 3,-5 2,-10 -4,-10 -5,0 -13,5 -16,10 -3,6 -2,10 4,10 5,0 13,-4 16,-10 z m -15,-236 c 0,-2 -7,-4 -15,-4 -8,0 -15,4 -15,10 0,5 7,7 15,4 8,-4 15,-8 15,-10 z m -20,-228 c 0,-11 -19,-15 -25,-6 -3,5 1,10 9,10 9,0 16,-2 16,-4 z M 1294,2608 c -23,-30 -85,-81 -65,-53 26,35 74,85 79,81 2,-3 -4,-15 -14,-28 z m 166,-157 c -25,-36 -36,-41 -19,-8 16,31 31,48 37,43 2,-3 -6,-19 -18,-35 z m 206,-98 c -8,-15 -15,-22 -16,-15 0,14 22,53 28,47 2,-2 -3,-16 -12,-32 z" />
  </g>
</svg>
